<?xml version="1.0" standalone="no"?>
<!DOCTYPE svg PUBLIC "-//W3C//DTD SVG 20010904//EN"
 "http://www.w3.org/TR/2001/REC-SVG-20010904/DTD/svg10.dtd">
<svg version="1.0" xmlns="http://www.w3.org/2000/svg"
 width="682.000000pt" height="122.000000pt" viewBox="0 0 682.000000 122.000000"
 preserveAspectRatio="xMidYMid meet">

<g transform="translate(0.000000,122.000000) scale(0.100000,-0.100000)"
fill="#000000" stroke="none">
<path d="M395 955 c-51 -18 -91 -62 -105 -116 -8 -27 -10 -130 -8 -298 3 -246
4 -257 26 -293 13 -21 40 -45 66 -57 40 -20 59 -21 374 -21 l332 0 0 80 0 80
-315 0 -315 0 0 240 0 240 315 0 315 0 0 80 0 80 -322 0 c-252 -1 -332 -4
-363 -15z"/>
<path d="M1210 570 l0 -400 80 0 79 0 3 133 3 132 120 2 120 3 113 -135 113
-135 84 0 c81 0 85 1 85 23 0 13 -35 63 -89 127 -49 58 -87 108 -85 111 2 4
22 9 45 13 52 8 103 56 118 111 14 52 14 238 0 290 -14 50 -64 100 -114 114
-25 7 -158 11 -357 11 l-318 0 0 -400z m638 133 l3 -103 -241 0 -240 0 0 98
c0 54 3 102 7 106 4 3 110 5 237 4 l231 -3 3 -102z"/>
<path d="M2140 570 l0 -400 365 0 365 0 0 80 0 80 -282 2 -283 3 -3 54 c-2 30
-1 65 3 78 l5 23 225 0 225 0 0 80 0 80 -227 2 -228 3 -3 54 c-2 30 -1 65 3
78 l5 23 280 0 280 0 0 80 0 80 -365 0 -365 0 0 -400z"/>
<path d="M2960 890 l0 -80 160 0 160 0 0 -320 0 -320 80 0 80 0 0 304 c0 167
3 311 6 320 5 14 29 16 160 16 l154 0 0 80 0 80 -400 0 -400 0 0 -80z"/>
</g>
</svg>
